<svg xmlns="http://www.w3.org/2000/svg" width="24" height="24" viewBox="0 0 20 20" fill="none">
  <mask id="mask0_18339_1445" style="mask-type:luminance" maskUnits="userSpaceOnUse" x="1" y="1" width="18" height="18">
    <path d="M19 1H1V19H19V1Z" fill="white"/>
  </mask>
  <g mask="url(#mask0_18339_1445)">
    <path d="M10 18.1818V16.5454" stroke="currentColor" stroke-width="1.67" stroke-linecap="round" stroke-linejoin="round"/>
    <path d="M10 1.81836V3.45472" stroke="currentColor" stroke-width="1.67" stroke-linecap="round" stroke-linejoin="round"/>
    <path d="M1.81824 10H3.4546" stroke="currentColor" stroke-width="1.67" stroke-linecap="round" stroke-linejoin="round"/>
    <path d="M18.1818 10H16.5454" stroke="currentColor" stroke-width="1.67" stroke-linecap="round" stroke-linejoin="round"/>
    <path d="M5.93359 17.1019L6.74359 15.6782" stroke="currentColor" stroke-width="1.67" stroke-linecap="round" stroke-linejoin="round"/>
    <path d="M14.0663 2.89844L13.2563 4.32208" stroke="currentColor" stroke-width="1.67" stroke-linecap="round" stroke-linejoin="round"/>
    <path d="M2.89819 5.93359L4.32183 6.74359" stroke="currentColor" stroke-width="1.67" stroke-linecap="round" stroke-linejoin="round"/>
    <path d="M17.1019 14.0663L15.6782 13.2563" stroke="currentColor" stroke-width="1.67" stroke-linecap="round" stroke-linejoin="round"/>
    <path d="M5.92542 2.90625L6.7436 4.3217" stroke="currentColor" stroke-width="1.67" stroke-linecap="round" stroke-linejoin="round"/>
    <path d="M14.0909 17.0854L13.2727 15.6699" stroke="currentColor" stroke-width="1.67" stroke-linecap="round" stroke-linejoin="round"/>
    <path d="M17.0855 5.90918L15.67 6.72736" stroke="currentColor" stroke-width="1.67" stroke-linecap="round" stroke-linejoin="round"/>
    <path d="M2.91455 14.0911L4.33001 13.2729" stroke="currentColor" stroke-width="1.67" stroke-linecap="round" stroke-linejoin="round"/>
    <path d="M10 16.5455C13.615 16.5455 16.5455 13.615 16.5455 10C16.5455 6.38509 13.615 3.45459 10 3.45459C6.38509 3.45459 3.45459 6.38509 3.45459 10C3.45459 13.615 6.38509 16.5455 10 16.5455Z" stroke="currentColor" stroke-width="1.67" stroke-linecap="round" stroke-linejoin="round"/>
    <path d="M12.5854 9.77916L8.80545 7.59461C8.63363 7.49643 8.41272 7.61916 8.41272 7.81552V12.1846C8.41272 12.381 8.62545 12.5119 8.80545 12.4055L12.5854 10.221C12.7573 10.1228 12.7573 9.86916 12.5854 9.77098V9.77916Z" fill="currentColor" stroke="currentColor" stroke-width="1.67" stroke-linecap="round" stroke-linejoin="round"/>
  </g>
</svg>
